<svg version="1" xmlns="http://www.w3.org/2000/svg" width="800" height="420" viewBox="0 0 600.000000 315.000000"><path d="M73 79.7c0 .4 19.4 20.2 43 43.8l43 43-42.6 42.6c-26.3 26.3-42.5 43.2-42.1 44 .3.9 16.4-14.5 43.6-41.6l43.1-43 42.8 42.8c23.5 23.5 43.3 42.7 44 42.7.6 0 1.2-.6 1.2-1.3 0-.7-19.1-20.3-42.5-43.7-23.4-23.3-42.5-42.7-42.5-43 0-.3 19-19.5 42.1-42.6 23.2-23.2 42-42.6 41.8-43.2-.2-.6-19.7 18.1-43.3 41.4-23.7 23.3-43.1 42.4-43.4 42.4-.2 0-19.5-19-42.8-42.3-23.4-23.2-43.2-42.3-44-42.5-.8-.2-1.4 0-1.4.5z"/><path d="M137.4 104.1c-1.9 2.2-1.9 2.2.4 1.7 2-.6 2.2-.2 2.2 2.9 0 2.2-.7 4.1-1.7 4.9-1.6 1.2-1.3 1.3 2.6 1.4 4.1 0 4.3-.1 2.8-1.8-1-1.1-1.5-3.3-1.4-6.2.2-5.2-1.8-6.4-4.9-2.9zM151 103.5c-1.7 2-.9 4.8 1.8 6.1 2.1 1 2.2 1.3.8 2.7-2 1.9-2 2.7-.2 2.7 1.7 0 5.6-6 5.6-8.7 0-4-5.4-5.9-8-2.8zm5.8 2.2c.5 1.8-2.8 2.9-3.8 1.2-.5-.7-.6-1.7-.3-2.2.7-1.2 3.5-.5 4.1 1zM165 103.5c-1.6 1.9-.9 4.5 1.5 5.9 1.1.6 2.2 1.2 2.4 1.3.2.2-.4 1.2-1.5 2.4-1.9 2.1-1.9 2.1.1 1.8 1.1-.3 3-2.3 4.3-4.6 1.8-3.4 2.1-4.6 1.2-6.3-1.3-2.4-6.1-2.7-8-.5zm5.8 2.2c-.5 2.6-3.8 2.9-3.8.4 0-1.5.6-2.1 2.1-2.1 1.4 0 1.9.5 1.7 1.7zM180.5 104c-1.8 1.9-1.7 2 .3 2 1.8 0 2.2.6 2.2 3 0 1.8-.6 3.3-1.5 3.6-2.9 1.2-1.4 2.4 2.8 2.4 3.7-.1 4-.2 2.5-1.4-1.3-1-1.8-2.7-1.8-6.5 0-5.6-1.4-6.6-4.5-3.1zM100.2 144.3c-3.5 4.2-6.7 15.7-4.3 15.7.4 0 2.2-.5 4-1.1 3.7-1.3 13.7.3 16.8 2.7 1.7 1.2 1.6 1.3-.4 1.4-1.3 0-2.3.5-2.3 1.1 0 .7 1.2.9 3.5.5 3-.6 3.5-.4 3.5 1.3 0 2-2 4.6-4.2 5.4-.7.2-1 .7-.6 1.1 1.1 1.3 4.8-1.4 5.9-4.2 1.3-3.5-1-6.6-8.7-11.2-4.8-2.9-6.4-4.6-8.4-8.7-2.7-5.6-3.2-6-4.8-4zM288.4 145.3c1.1.7 3 2.2 4.3 3.4 2.3 2.2 2.3 2.2 2.3 31.3v29h8v-65l-8.2.1c-6.9 0-8 .2-6.4 1.2zM319 144.9c0 .5 1.6 1.5 3.5 2.1 5.2 1.7 7.5 5.5 16 26 15.2 36.6 15.4 37 18.5 37 3.1 0 4.2-1.1 5.8-5.5.6-1.7 6.3-15.4 12.7-30.5 6.4-15.1 11.9-28.1 12.2-28.8.3-.8-.6-1.2-3-1.2s-3.6.5-4 1.7c-1.7 5.8-21.6 49.7-22.3 49.5-.8-.3-6.8-13.3-21.1-45.5l-2.6-5.7h-7.8c-4.4 0-7.9.4-7.9.9zM418 145c0 .6 1.1 1.5 2.5 2 4.4 1.7 4 2.6-14.5 44.5-1 2.2-2.5 5.7-3.4 7.7-.9 2.1-2.3 5.4-3.1 7.3L398 210h7.6l4.4-10 4.5-10H443.8l4.2 10 4.2 10h4c2.8 0 3.9-.4 3.5-1.3-.7-1.7-20-45.4-24.5-55.7l-3.8-8.5-6.7-.3c-4.3-.2-6.7.1-6.7.8zm16.2 23.7c2.6 6 5 11.6 5.4 12.5.6 1.7-.3 1.8-10.5 1.8-6.1 0-11.1-.3-11.1-.7 0-1.2 10.5-24.3 11-24.3.3 0 2.6 4.8 5.2 10.7zM469 144.8c0 .5 1.6 1.6 3.5 2.5l3.5 1.7.2 30.2.3 30.3h5.6v-25.3c0-14.2.3-25.2.8-25 .5.2 10 11.7 21 25.5 16.7 21.1 20.5 25.3 22.6 25.3h2.5v-66h-5v25c0 13.7-.3 25-.7 25-.5 0-9.8-11.3-20.8-25l-20-25h-6.7c-3.8 0-6.8.4-6.8.8zM205.5 148c-.8 1.3 2 2.4 4 1.6.8-.3 1.5-1 1.5-1.6 0-1.3-4.7-1.3-5.5 0zM209.5 158c-1 1.1-1.3 2-.7 2 .6 0 1.6-.9 2.2-2 .6-1.1.9-2 .7-2-.2 0-1.2.9-2.2 2zM205.7 160.4c-.4 1-.5 2.1-.2 2.4.9.9 1.7-.6 1.3-2.5-.3-1.7-.4-1.7-1.1.1zM228 162.2c0 1.6-1.2 1.8-10.5 1.8-10.8 0-13.3 1-6.7 2.6l3.7.9.3 7.7c.2 6.6 0 7.8-1.3 7.8-.9 0-1.3.4-1 1 1 1.6 8.3 1.2 11.3-.7 6.5-4.1 7.1-5 5.8-10.1-1.5-5.7-3.8-6.6-6-2.3-1.9 3.6-2.3 7.9-.4 4.6 1.6-3 1.6-3 3.8-1 2.8 2.5 2.5 3.6-1.3 6.2-5.3 3.6-5.7 3.2-5.7-5.6v-7.9l3.3-.6c4.4-.9 6.8-2.8 5.6-4.7-.7-1.1-.9-1.1-.9.3z"/><path d="M108 164c0 .5.9 1 2 1s2-.5 2-1c0-.6-.9-1-2-1s-2 .4-2 1zM106.8 167.8l-5.8.3v3.9c0 2.1-.4 4.2-1 4.5-2.7 1.7-.2 2.5 8 2.5 5 0 9-.3 9-.6s-.7-1.2-1.5-2c-1-1-1.3-2.6-.9-4.8.6-4 .1-4.2-7.8-3.8zM204.9 168.2c0 .2-.2 2.5-.3 5.3-.2 5.1.4 6.2 4.9 8.6 1.1.6.7 0-1-1.4-2.7-2.2-2.8-2.7-1.7-5.1 1.5-3.3 2.7-3.3 4.7.1l1.6 2.8-.6-3.4c-.6-4.1-3.1-7.1-5.7-7.1-1 0-1.8.1-1.9.2zM167.7 203c-.9 1.1-2.3 2-3.1 2-1.7 0-4.6 2.7-4.6 4.2 0 .7 1 .3 2.3-.8 1.2-1.1 3.4-2.5 5-3.2 1.5-.6 2.7-1.8 2.7-2.7 0-1.9-.2-1.9-2.3.5zM172 204.5c-.7.8-1.8 1.5-2.5 1.5-1.6 0-6.4 3.9-4.8 4 .6 0 1.4-.4 1.7-.9.3-.4 1.9-1.1 3.5-1.4 1.7-.4 3.5-1.5 4.1-2.7 1.2-2.3-.2-2.7-2-.5zM146 217.7c0 2.7.9 6.8 2 9.2 2.4 5.2 2.4 5.1.4 5.1-.8 0-1.2.4-.9 1 .4.6 5.3 1 11.5 1s11.1-.4 11.5-1c.3-.6-.3-1-1.5-1-1.8 0-1.9-.3-1-2 .6-1.2 2.5-2.3 4.1-2.7 6-1.2 7.5-7.8 2.4-10.1-1.4-.6-2.5-1.8-2.5-2.7 0-1.3-2-1.5-13-1.5h-13v4.7zm7.2 4c.3 3.8.4 7 .2 7.2-.2.2-1.2-1.2-2.3-3-2-3.3-2.8-8.9-1.4-10.2 2-2.1 3.1-.3 3.5 6zm21.6 0c.2 1.2-.4 2.3-1.4 2.7-2.3.9-2.8.2-2-2.9.8-3 2.9-2.9 3.4.2z"/></svg>